# xmcd
#
# Track frame offsets:
#	182
#	16207
#	31322
#	46800
#	58402
#	71167
#	90310
#	104217
#	114452
#	127952
#	140305
#	156685
#	168400
#	183115
#	201347
#
# Disc length: 2830 seconds
#
# Revision: 0
# Processed by: cddbd v1.4PL0 Copyright (c) Steve Scherf et al.
# Submitted via: dBpowerAMP V4.0
#
DISCID=d50b0c0f
DTITLE=Wylie and the Wild West Show - Way Out West
DYEAR=1996
DGENRE=Country
TTITLE0=Hello Heartache
TTITLE1=Jingle Jangle Jingle
TTITLE2=Heaven
TTITLE3=Rain Rain
TTITLE4=Murrumbidgee Boogie
TTITLE5=Sidewalks of L.A.
TTITLE6=Girl on the Billboard
TTITLE7=Give Me a Pinto Pal
TTITLE8=I Remember You
TTITLE9=I'm Your Man
TTITLE10=Heartaches, Tears and Misery
TTITLE11=Fill It Up
TTITLE12=I Still Get a Thrill
TTITLE13=Way Out West
TTITLE14=I'm Movin' On
EXTD=
EXTT0=
EXTT1=
EXTT2=
EXTT3=
EXTT4=
EXTT5=
EXTT6=
EXTT7=
EXTT8=
EXTT9=
EXTT10=
EXTT11=
EXTT12=
EXTT13=
EXTT14=
PLAYORDER=
